PathFileType	4	(X/Y/Z)	C:/Users/opensim2020/Desktop/walking_exp_matlab/subject03_walking15_straight_02.trc	
DataRate	CameraRate	NumFrames	NumMarkers	Units	OrigDataRate	OrigDataStartFrame	OrigNumFrames	
100.00	100.00	6	47	mm	100.00	1215	149	
Frame#	Time	LFHD			RFHD			LBHD			RBHD			C7			T10			CLAV			STRN			RBAK			LSHO			LUPA			LELB			LFRM			LWRA			LWRB			LFIN			RSHO			RUPA			RELB			RFRM			RWRA			RWRB			RFIN			LASI			RASI			LPSI			RPSI			LTHI			LKNE			LTIB			LANK			LHEE			LTOE			RTHI			RKNE			RTIB			RANK			RHEE			RTOE			*39			*40			*41			*42			*43			*44			*45			*46			
		X1	Y1	Z1	X2	Y2	Z2	X3	Y3	Z3	X4	Y4	Z4	X5	Y5	Z5	X6	Y6	Z6	X7	Y7	Z7	X8	Y8	Z8	X9	Y9	Z9	X10	Y10	Z10	X11	Y11	Z11	X12	Y12	Z12	X13	Y13	Z13	X14	Y14	Z14	X15	Y15	Z15	X16	Y16	Z16	X17	Y17	Z17	X18	Y18	Z18	X19	Y19	Z19	X20	Y20	Z20	X21	Y21	Z21	X22	Y22	Z22	X23	Y23	Z23	X24	Y24	Z24	X25	Y25	Z25	X26	Y26	Z26	X27	Y27	Z27	X28	Y28	Z28	X29	Y29	Z29	X30	Y30	Z30	X31	Y31	Z31	X32	Y32	Z32	X33	Y33	Z33	X34	Y34	Z34	X35	Y35	Z35	X36	Y36	Z36	X37	Y37	Z37	X38	Y38	Z38	X39	Y39	Z39	X40	Y40	Z40	X41	Y41	Z41	X42	Y42	Z42	X43	Y43	Z43	X44	Y44	Z44	X45	Y45	Z45	X46	Y46	Z46	X47	Y47	Z47	

131	1.300	-885.95392	-774.95734	1577.50574	-1017.33167	-782.05542	1598.92957	-904.32062	-647.10724	1535.73645	-1032.75891	-659.68207	1556.46729	-967.00635	-630.00714	1373.21777	-971.49841	-635.84863	1055.96265	-979.12152	-757.38666	1310.76086	-981.15399	-823.32312	1154.17322	-1058.90039	-590.59247	1187.84021	-818.53833	-723.35834	1343.38647	-747.19531	-718.32446	1144.47632	-736.69299	-713.03790	1020.76141	-733.56403	-711.63098	889.57794	-755.41956	-687.38629	767.80634	-699.17218	-688.63318	781.76184	-701.05994	-638.17670	705.52258	-1133.86389	-691.50262	1330.72058	-1218.95313	-720.63049	1115.56689	-1235.67578	-765.30737	1016.23035	-1224.51587	-855.79315	917.70795	-1180.04797	-937.06989	870.08746	-1218.06030	-916.30676	838.50110	-1206.91821	-981.08893	807.26331	-874.69678	-829.17627	919.63080	-1107.89746	-800.48254	903.77148	-900.65442	-661.86823	926.15344	-1050.63977	-645.27991	927.12604	-821.11658	-870.50787	630.38391	-869.08441	-945.19147	474.41821	-863.62994	-930.06482	271.99576	-906.70667	-929.14423	64.22325	-940.90564	-887.21307	31.48896	-933.63867	-1079.78125	30.89551	-1154.64978	-713.76752	608.38007	-1137.03284	-703.54608	427.71939	-1126.90295	-547.16351	309.42291	-1073.49731	-387.62338	167.89815	-1016.62469	-344.53018	184.23880	-1048.87915	-430.92148	29.65588	-936.19623	-695.08215	1644.45471																					 
132	1.310	-884.60168	-787.33447	1576.61841	-1015.77106	-794.70758	1598.61108	-903.38483	-659.42047	1534.81042	-1031.46997	-672.50928	1555.84021	-966.14453	-643.15363	1372.55420	-970.88898	-649.66473	1055.38330	-978.17511	-770.85986	1310.37732	-980.39807	-837.34204	1154.06140	-1057.83813	-604.16473	1186.98083	-817.57550	-737.08472	1343.00793	-745.51776	-733.28625	1144.35120	-734.47980	-728.58844	1020.61621	-730.95453	-728.50623	889.51007	-752.67102	-705.65540	767.56604	-696.50616	-706.37360	781.52332	-698.79279	-659.93628	703.06177	-1132.80103	-704.96692	1329.87195	-1217.26587	-733.08002	1114.43933	-1233.65393	-777.31372	1014.82416	-1222.20557	-867.31403	915.87286	-1177.77551	-948.41223	867.86548	-1215.71875	-927.40900	836.33966	-1204.43604	-992.00171	804.52411	-874.04553	-843.56396	921.09210	-1106.58984	-814.99408	903.13367	-900.71191	-675.72180	926.36359	-1050.49536	-659.40881	925.55316	-820.83698	-887.72485	631.90674	-869.26990	-960.46729	474.45328	-863.97192	-939.78711	272.37323	-906.66895	-929.63116	65.15990	-940.77148	-887.53900	31.64480	-933.79932	-1080.35889	30.54300	-1155.05688	-733.87006	605.72095	-1138.43164	-728.16101	425.21371	-1128.57690	-570.67664	310.59814	-1076.56738	-407.90741	172.36723	-1020.58990	-366.23599	195.76044	-1047.14575	-436.29355	32.64553	-931.09082	-708.60895	1644.01990																					 
133	1.320	-883.03229	-799.68646	1576.06104	-1014.15845	-807.29681	1598.44043	-902.62427	-671.73370	1533.95557	-1030.24097	-685.24878	1555.30066	-964.98126	-656.11938	1371.94971	-970.61584	-662.88580	1055.10742	-977.34497	-784.07355	1310.05615	-979.76263	-850.88910	1153.95471	-1057.06299	-617.32080	1186.48535	-816.77484	-750.67682	1342.68787	-743.88818	-747.96637	1144.35120	-732.24542	-744.30182	1020.59100	-728.02502	-746.11273	889.84808	-749.96332	-724.34351	767.47736	-693.81128	-724.70691	781.37854	-696.94232	-682.74677	700.56885	-1131.86279	-718.18469	1329.45410	-1215.38782	-745.69843	1113.52710	-1231.58130	-789.33240	1013.55597	-1219.99329	-878.60480	913.95331	-1175.57275	-959.40369	865.40057	-1213.45593	-938.09741	833.86151	-1201.93066	-1002.29279	801.24213	-873.36133	-857.52057	922.35419	-1105.59644	-828.91583	902.55975	-900.67822	-689.38171	926.33124	-1050.23157	-672.88586	923.89392	-820.14233	-903.96594	632.91968	-868.79834	-973.39801	473.69577	-863.74817	-946.82233	272.17081	-906.84540	-930.07043	65.41204	-940.65765	-887.28204	31.94874	-934.18073	-1080.62805	30.28659	-1155.03455	-753.75092	603.07019	-1139.05640	-753.09711	422.75681	-1130.72522	-596.50903	309.64078	-1079.10156	-428.33267	178.49223	-1024.44788	-388.31195	207.47003	-1046.18420	-444.58173	38.47168	-929.11664	-720.93988	1643.33142																					 
134	1.330	-881.43219	-812.04736	1575.79602	-1012.48206	-819.92413	1598.56079	-901.11169	-684.49091	1533.23315	-1029.10852	-698.03326	1555.18726	-963.96484	-668.65063	1371.35730	-970.04034	-676.27808	1054.77148	-976.56641	-797.00562	1309.98352	-979.35791	-864.02069	1154.00842	-1056.49292	-630.09265	1186.41772	-816.03320	-764.05396	1342.49243	-742.39948	-762.23700	1144.38770	-730.05292	-760.08386	1020.68396	-725.84259	-763.06842	889.72943	-747.25195	-743.87585	767.57123	-691.32690	-743.21588	781.24341	-695.09454	-707.03351	698.37311	-1131.10181	-731.12189	1329.50354	-1213.95105	-758.26874	1112.76086	-1229.56152	-801.34424	1012.34644	-1217.82666	-889.79224	912.00061	-1173.57507	-970.14978	862.53705	-1211.23340	-948.35303	831.20740	-1199.48438	-1012.04498	797.56079	-872.80322	-871.13940	923.50134	-1105.03687	-842.27539	902.07813	-900.53186	-702.51520	926.36597	-1049.81506	-685.90143	922.27429	-819.32520	-917.50958	633.12122	-867.70032	-984.03363	472.35089	-863.20459	-951.91553	271.67770	-907.01898	-930.52917	65.72401	-940.63843	-887.32196	32.18911	-934.23907	-1080.69324	30.09568	-1154.52051	-773.20105	600.75903	-1139.09900	-778.57336	420.53790	-1132.67700	-622.29779	309.38303	-1081.08643	-448.85757	186.43782	-1026.82336	-411.29764	219.12102	-1047.26843	-455.57709	45.94959	-928.93311	-732.72980	1642.21875																					 
135	1.340	-879.87244	-824.18176	1575.60046	-1010.77979	-832.45496	1598.92249	-900.30121	-696.73438	1533.09680	-1027.97290	-710.65411	1555.46289	-963.05975	-681.12469	1371.34387	-969.51697	-689.39624	1054.77625	-975.91443	-809.61487	1310.20020	-979.22955	-876.78394	1154.27905	-1056.08508	-642.45428	1186.81592	-815.36865	-777.28436	1342.45483	-741.09015	-776.42334	1144.65881	-727.99255	-775.72113	1020.88629	-723.63727	-780.33295	889.92487	-744.75385	-764.69806	767.87280	-689.00763	-762.28436	781.23553	-693.83368	-731.88043	696.46173	-1130.31934	-744.01563	1329.49072	-1212.33032	-770.80841	1112.29138	-1227.67407	-813.33667	1011.29791	-1215.80469	-900.59052	909.81964	-1171.38025	-980.37048	859.35999	-1209.15576	-958.30310	828.43060	-1197.04541	-1021.32593	793.57770	-872.51184	-884.47577	924.40625	-1104.76111	-854.84985	901.73132	-900.15222	-715.90613	926.48450	-1049.11902	-698.56128	920.88477	-818.68951	-927.93866	632.84027	-866.23865	-993.09412	470.76331	-862.77972	-956.12500	271.05719	-906.94324	-930.85291	65.91493	-940.54059	-887.30182	32.49663	-934.20947	-1080.82703	30.02226	-1153.67249	-792.17615	599.27673	-1138.93481	-805.07526	418.53638	-1134.25610	-648.69073	309.32275	-1081.84302	-470.35474	194.53169	-1026.57434	-434.31790	228.45869	-1051.57544	-472.20792	53.67876	-928.82404	-744.03876	1642.67090																					 
136	1.350	-878.27234	-836.33044	1575.59937	-1009.09174	-845.02509	1599.43103	-899.33752	-708.84552	1533.13843	-1026.90186	-723.28723	1556.06677	-962.12421	-693.47101	1371.66931	-968.78375	-702.37244	1055.02954	-975.32538	-822.00769	1310.66650	-979.17053	-889.33142	1154.79248	-1055.77258	-654.61755	1187.56165	-814.70862	-790.17682	1342.52710	-739.93976	-790.42841	1145.04871	-726.06226	-791.43225	1021.42078	-721.36469	-798.14935	890.44946	-742.44305	-785.48279	768.43756	-686.90320	-781.78943	781.46533	-692.07990	-758.41974	695.46155	-1129.67639	-756.56531	1329.81531	-1210.99304	-783.20526	1112.11597	-1225.96521	-825.32397	1010.54333	-1213.91187	-911.36011	907.80731	-1169.38318	-990.47906	856.19446	-1207.22388	-967.90350	825.62537	-1194.56238	-1030.24182	789.46893	-872.40009	-897.56897	925.21173	-1105.03748	-867.00983	901.71356	-899.29919	-729.09991	926.85583	-1048.19482	-711.20612	919.93744	-818.03235	-937.17853	632.01282	-864.94635	-1000.97571	468.93436	-862.33069	-960.22632	270.47113	-906.99542	-931.53802	65.99368	-940.35291	-887.32233	32.80309	-934.23669	-1080.95166	29.96843	-1152.54736	-810.80847	598.68579	-1138.67065	-831.55487	418.03424	-1134.48633	-675.07275	310.83392	-1081.70349	-492.69196	202.61629	-1024.79419	-456.76669	235.24641	-1056.15027	-494.27670	60.78877	-926.32349	-756.58490	1642.81702																					 
